<svg id="Layer_1" data-name="Layer 1" xmlns="http://www.w3.org/2000/svg" width="10.68" height="15.6" viewBox="0 0 10.68 15.6">
  <path d="M5.32,15.6c-1.14,0-2.28,0-3.42,0A1.79,1.79,0,0,1,0,13.68C0,11.6,0,9.52,0,7.43a5.13,5.13,0,0,1,3.21-5c.21-.09.19-.24.2-.41A1.9,1.9,0,0,1,4.79.08,1.89,1.89,0,0,1,7.24,1.85a.62.62,0,0,0,.43.64,5.05,5.05,0,0,1,3,4.73c0,2.19,0,4.38,0,6.58A1.69,1.69,0,0,1,8.9,15.59c-1.19,0-2.38,0-3.58,0ZM8,9.4v1.48a.59.59,0,1,0,1.17-.05c0-.77,0-1.53,0-2.29,0-.3-.1-.36-.38-.36H2.39c-.84,0-.83,0-.84.84,0,.29.08.39.39.39,1.88,0,3.76,0,5.65,0ZM4.22,2.05H6.41A1.06,1.06,0,0,0,5.4.88C4.74.82,4.27,1.29,4.22,2.05Z"/>
</svg>
