<svg id="Layer_1" data-name="Layer 1" xmlns="http://www.w3.org/2000/svg" width="131.4" height="131.4" viewBox="0 0 131.4 131.4">
  <defs>
    <style>
      .cls-1 {
        fill: #50758f;
      }

      .cls-2 {
        fill: #fff;
      }
    </style>
  </defs>
  <g>
    <circle class="cls-1" cx="65.7" cy="65.7" r="65.7"/>
    <path class="cls-2" d="M67.14,103.4c-6.14,0-12.28-.15-18.42,0S38.45,99,38.52,93.13c.14-11.2,0-22.4,0-33.6.06-12.63,5.62-21.83,17.24-27.09,1.15-.52,1.06-1.32,1.08-2.23.09-5.08,2.8-8.83,7.35-10.19a10.18,10.18,0,0,1,13.21,9.51c0,1.84.63,2.63,2.27,3.44,10.5,5.16,15.86,13.79,16.07,25.39.22,11.79.07,23.59,0,35.38,0,5.69-3.79,9.56-9.47,9.63-6.41.08-12.82,0-19.22,0Zm14.5-33.29c0,2.82,0,5.39,0,8a3.06,3.06,0,0,0,2.62,3.18c2,.35,3.63-1.18,3.66-3.5,0-4.09-.06-8.19,0-12.28,0-1.61-.55-2-2-2-11.52,0-23,0-34.56,0-4.53,0-4.47,0-4.52,4.48,0,1.6.42,2.13,2.09,2.11,10.12-.07,20.24,0,30.36,0ZM61.2,30.6H73a5.69,5.69,0,0,0-5.4-6.31C64,24,61.49,26.49,61.2,30.6Z"/>
  </g>
</svg>
