<svg id="Layer_1" data-name="Layer 1" xmlns="http://www.w3.org/2000/svg" xmlns:xlink="http://www.w3.org/1999/xlink" width="176.26" height="56.73" viewBox="0 0 176.26 56.73">
  <defs>
    <style>
      .cls-1 {
        fill: none;
      }

      .cls-2 {
        fill: #fff;
      }

      .cls-3 {
        fill: #1994fc;
      }

      .cls-4 {
        clip-path: url(#clip-path);
      }

      .cls-5 {
        fill: url(#linear-gradient);
      }

      .cls-6 {
        fill: #fdbf02;
      }

      .cls-7 {
        fill: #e10813;
      }

      .cls-8 {
        clip-path: url(#clip-path-2);
      }
    </style>
    <clipPath id="clip-path">
      <path class="cls-1" d="M42.41,48.09q-.36-4.86-.71-9.73c-.17-2.43-.26-4.88-.5-7.3q-.45-4.33-1.11-8.64A31.29,31.29,0,0,0,38,14.77a14.21,14.21,0,0,0-4.46-5.95c-.8-.59-1.67-1.09-2.52-1.61a2.93,2.93,0,0,1-1.41-1.92c-.05-.17-.44-1.2-.53-1.36A7.25,7.25,0,0,0,22.62,0h-.27a7,7,0,0,0-7,5.84,1.52,1.52,0,0,1-1,1.19,13.54,13.54,0,0,0-6,5.17,22.23,22.23,0,0,0-3,7.8A120.32,120.32,0,0,0,3.44,35.72q-.3,4.45-.58,8.92h0c0,.22,0,.43,0,.65,0,.58-.09,1.16-.13,1.74-.06.93-.12,1.86-.11,2.79h0A6.66,6.66,0,0,0,5,54.93a7.69,7.69,0,0,0,5.18,1.76c4.14,0,8.28,0,12.42,0h0v0c.34,0,.67,0,1,0h6.74c1.38,0,2.76,0,4.14,0a7.55,7.55,0,0,0,4.78-1.34A7.76,7.76,0,0,0,42.41,48.09Zm-24-43a4.64,4.64,0,0,1,3.94-2.34h.13a4.64,4.64,0,0,1,4.09,2.37.59.59,0,0,1,0,.5c-.05.1-.3.14-.45.12a24.4,24.4,0,0,0-3.81-.26,24.61,24.61,0,0,0-3.52.25c-.15,0-.41,0-.47-.13A.57.57,0,0,1,18.41,5.07ZM9.53,18a17.44,17.44,0,0,1,1-2.65,11.14,11.14,0,0,1,8.32-6.13,15.81,15.81,0,0,1,3.54-.34h.21A18.07,18.07,0,0,1,28,9.7a11,11,0,0,1,6.66,6.1,14.41,14.41,0,0,1,.75,1.92,1,1,0,0,1-1.11,1.45c-.5,0-.73-.39-.9-.8s-.39-1.07-.63-1.59A9.1,9.1,0,0,0,26,11.41,18.21,18.21,0,0,0,22.35,11a16.87,16.87,0,0,0-4.27.57,8.69,8.69,0,0,0-5.54,4.7c-.29.55-.53,1.13-.8,1.69a6.67,6.67,0,0,1-.35.71.89.89,0,0,1-1.19.39C9.68,18.91,9.38,18.54,9.53,18Zm26.77,32a1,1,0,0,1-1.23-.83c-.11-.6-.15-1.22-.2-1.83-.27-3.1-.49-6.2-.82-9.29a29.12,29.12,0,0,0-.82-4.55,10.51,10.51,0,0,0-6.06-7.07,11.89,11.89,0,0,0-4.82-1.11,11.34,11.34,0,0,0-6.52,2,10.47,10.47,0,0,0-3.66,4.79,17.71,17.71,0,0,0-1.29,5.58v0L10.7,40l-.57,7.11h0c0,.46-.07.92-.12,1.38,0,.22,0,.45-.08.68a.94.94,0,0,1-1.16.91.89.89,0,0,1-.93-1h0c0-.31,0-.62,0-.94s0-.53.08-.8c0-.09,0-.19,0-.28.35-3.42.69-6.85,1.06-10.27A22.84,22.84,0,0,1,9.64,33c1.1-3.85,3.21-6.94,7-8.57a14,14,0,0,1,5.16-1h.51a15.16,15.16,0,0,1,5.5.86,11.5,11.5,0,0,1,6.38,5.8,19.1,19.1,0,0,1,2.07,7.39c.26,3.21.49,6.42.73,9.63,0,.63.11,1.26.12,1.9A1,1,0,0,1,36.3,50.06Z"/>
    </clipPath>
    <linearGradient id="linear-gradient" x1="30.48" y1="25.45" x2="-1" y2="25.45" gradientUnits="userSpaceOnUse">
      <stop offset="0" stop-color="#1994fc"/>
      <stop offset="0.59" stop-color="#0069b2"/>
    </linearGradient>
    <clipPath id="clip-path-2">
      <path class="cls-2" d="M18.41,5.07a4.64,4.64,0,0,1,3.94-2.34h.13a4.64,4.64,0,0,1,4.09,2.37.59.59,0,0,1,0,.5c-.05.1-.3.14-.45.12a24.4,24.4,0,0,0-3.81-.26,24.61,24.61,0,0,0-3.52.25c-.15,0-.41,0-.47-.13A.57.57,0,0,1,18.41,5.07ZM9.53,18a17.44,17.44,0,0,1,1-2.65,11.14,11.14,0,0,1,8.32-6.13,15.81,15.81,0,0,1,3.54-.34h.21A18.07,18.07,0,0,1,28,9.7a11,11,0,0,1,6.66,6.1,14.41,14.41,0,0,1,.75,1.92,1,1,0,0,1-1.11,1.45c-.5,0-.73-.39-.9-.8s-.39-1.07-.63-1.59A9.1,9.1,0,0,0,26,11.41,18.21,18.21,0,0,0,22.35,11a16.87,16.87,0,0,0-4.27.57,8.69,8.69,0,0,0-5.54,4.7c-.29.55-.53,1.13-.8,1.69a6.67,6.67,0,0,1-.35.71.89.89,0,0,1-1.19.39C9.68,18.91,9.38,18.54,9.53,18Zm26.77,32a1,1,0,0,1-1.23-.83c-.11-.6-.15-1.22-.2-1.83-.27-3.1-.49-6.2-.82-9.29a29.12,29.12,0,0,0-.82-4.55,10.51,10.51,0,0,0-6.06-7.07,11.89,11.89,0,0,0-4.82-1.11,11.34,11.34,0,0,0-6.52,2,10.47,10.47,0,0,0-3.66,4.79,17.71,17.71,0,0,0-1.29,5.58v0L10.7,40l-.57,7.11h0c0,.46-.07.92-.12,1.38,0,.22,0,.45-.08.68a.94.94,0,0,1-1.16.91.89.89,0,0,1-.93-1h0c0-.31,0-.62,0-.94s0-.53.08-.8c0-.09,0-.19,0-.28.35-3.42.69-6.85,1.06-10.27A22.84,22.84,0,0,1,9.64,33c1.1-3.85,3.21-6.94,7-8.57a14,14,0,0,1,5.16-1h.51a15.16,15.16,0,0,1,5.5.86,11.5,11.5,0,0,1,6.38,5.8,19.1,19.1,0,0,1,2.07,7.39c.26,3.21.49,6.42.73,9.63,0,.63.11,1.26.12,1.9A1,1,0,0,1,36.3,50.06Z"/>
    </clipPath>
  </defs>
  <g>
    <g>
      <path class="cls-3" d="M69.42,14.88a1.42,1.42,0,0,1,.37,1V26.23a1.26,1.26,0,0,1-.34.94,1.23,1.23,0,0,1-.91.35,1.21,1.21,0,0,1-.89-.35,1.27,1.27,0,0,1-.35-.94V19.8l-2.58,4.86a1.92,1.92,0,0,1-.55.69,1.18,1.18,0,0,1-.72.22,1.15,1.15,0,0,1-.71-.22,1.85,1.85,0,0,1-.57-.69L59.59,19.9v6.33a1.24,1.24,0,0,1-.35.93,1.19,1.19,0,0,1-.9.36,1.22,1.22,0,0,1-.9-.35,1.26,1.26,0,0,1-.34-.94V15.89a1.42,1.42,0,0,1,.37-1,1.28,1.28,0,0,1,1-.39,1.43,1.43,0,0,1,1.33.93l3.69,7,3.68-7a1.47,1.47,0,0,1,1.31-.93A1.28,1.28,0,0,1,69.42,14.88Z"/>
      <path class="cls-3" d="M74,27a3.91,3.91,0,0,1-1.65-1.62,5.44,5.44,0,0,1,0-4.93A3.88,3.88,0,0,1,74,18.82a5.37,5.37,0,0,1,2.49-.56,5.32,5.32,0,0,1,2.49.56,4,4,0,0,1,1.66,1.61,5,5,0,0,1,.58,2.47,5,5,0,0,1-.58,2.46A4,4,0,0,1,78.94,27a5.2,5.2,0,0,1-2.49.57A5.26,5.26,0,0,1,74,27Zm4.49-4.08A3,3,0,0,0,77.93,21a1.78,1.78,0,0,0-1.48-.64c-1.33,0-2,.86-2,2.57s.67,2.56,2,2.56S78.45,24.61,78.45,22.9Z"/>
      <path class="cls-3" d="M90.84,19.19A4.36,4.36,0,0,1,91.62,22v4.21a1.21,1.21,0,0,1-.37.94,1.44,1.44,0,0,1-1,.35,1.38,1.38,0,0,1-1-.35,1.24,1.24,0,0,1-.36-.94V22.15a2.14,2.14,0,0,0-.34-1.33,1.27,1.27,0,0,0-1.05-.42,1.82,1.82,0,0,0-1.37.55,2,2,0,0,0-.52,1.46v3.82a1.24,1.24,0,0,1-.36.94,1.62,1.62,0,0,1-2,0,1.21,1.21,0,0,1-.37-.94V19.55a1.12,1.12,0,0,1,.39-.91,1.46,1.46,0,0,1,1-.35,1.28,1.28,0,0,1,.91.34,1.13,1.13,0,0,1,.36.86v.26a3.13,3.13,0,0,1,1.23-1.11,3.76,3.76,0,0,1,1.7-.38A2.94,2.94,0,0,1,90.84,19.19Z"/>
      <path class="cls-3" d="M100.21,27.37a4.23,4.23,0,0,1-1.44-.58,1.18,1.18,0,0,1-.42-.44,1.38,1.38,0,0,1-.14-.62,1.11,1.11,0,0,1,.23-.7.75.75,0,0,1,.58-.28,1.61,1.61,0,0,1,.48.08L100,25a6.17,6.17,0,0,0,1,.38,4.69,4.69,0,0,0,1.22.13,2,2,0,0,0,1-.2.59.59,0,0,0,.35-.54.56.56,0,0,0-.15-.41,1.36,1.36,0,0,0-.57-.28,13.17,13.17,0,0,0-1.33-.31,5.06,5.06,0,0,1-2.33-.93,2.18,2.18,0,0,1-.71-1.73,2.4,2.4,0,0,1,.5-1.47,3.33,3.33,0,0,1,1.38-1,4.89,4.89,0,0,1,2-.37,5.64,5.64,0,0,1,1.53.2,5,5,0,0,1,1.33.56,1.22,1.22,0,0,1,.32,1.75.73.73,0,0,1-.58.29,2.12,2.12,0,0,1-1-.33,5,5,0,0,0-.83-.35,2.88,2.88,0,0,0-.88-.12,1.63,1.63,0,0,0-.89.21A.65.65,0,0,0,101,21a.62.62,0,0,0,.38.58,5.66,5.66,0,0,0,1.48.4,7.8,7.8,0,0,1,1.91.58,2.29,2.29,0,0,1,1,.84,2.51,2.51,0,0,1,.31,1.29A2.41,2.41,0,0,1,105,26.79a4.78,4.78,0,0,1-2.84.76A9.05,9.05,0,0,1,100.21,27.37Z"/>
      <path class="cls-3" d="M114.54,19.21a4,4,0,0,1,.95,2.92v4.11a1.25,1.25,0,0,1-.35.94,1.34,1.34,0,0,1-1,.34,1.27,1.27,0,0,1-.94-.36,1.21,1.21,0,0,1-.35-.92v-.12a2.21,2.21,0,0,1-.91,1.05,2.81,2.81,0,0,1-1.5.38,3.69,3.69,0,0,1-1.64-.36,2.9,2.9,0,0,1-1.17-1,2.64,2.64,0,0,1-.42-1.45,2.22,2.22,0,0,1,.5-1.55,3,3,0,0,1,1.61-.82,14.25,14.25,0,0,1,3-.25h.47v-.33a1.25,1.25,0,0,0-1.46-1.46,7.26,7.26,0,0,0-2.25.55,1.79,1.79,0,0,1-.71.2.79.79,0,0,1-.64-.28,1.12,1.12,0,0,1-.24-.74,1,1,0,0,1,.17-.6,1.51,1.51,0,0,1,.53-.44,5.73,5.73,0,0,1,1.55-.54,8.09,8.09,0,0,1,1.81-.2A4,4,0,0,1,114.54,19.21Zm-2.16,5.91a2,2,0,0,0,.49-1.39v-.31h-.31a6.2,6.2,0,0,0-2.07.24.86.86,0,0,0-.59.86,1.1,1.1,0,0,0,.34.82,1.15,1.15,0,0,0,.85.32A1.67,1.67,0,0,0,112.38,25.12Z"/>
      <path class="cls-3" d="M119.25,27a3.89,3.89,0,0,1-1.59-1.6,5.08,5.08,0,0,1-.55-2.44,4.92,4.92,0,0,1,.59-2.46,4.12,4.12,0,0,1,1.66-1.65,5.1,5.1,0,0,1,2.48-.58,5.29,5.29,0,0,1,1.46.2,4.91,4.91,0,0,1,1.32.56,1.13,1.13,0,0,1,.56,1,1.23,1.23,0,0,1-.22.77.68.68,0,0,1-.58.3,1.08,1.08,0,0,1-.44-.08c-.14-.05-.33-.13-.56-.24a4.32,4.32,0,0,0-.68-.31,1.83,1.83,0,0,0-.68-.11,1.92,1.92,0,0,0-1.56.64,2.88,2.88,0,0,0-.53,1.89,2.91,2.91,0,0,0,.53,1.89,1.89,1.89,0,0,0,1.56.65,2,2,0,0,0,.67-.1,4.44,4.44,0,0,0,.71-.32c.23-.1.41-.19.55-.24a1.18,1.18,0,0,1,.43-.08A.67.67,0,0,1,125,25a1.21,1.21,0,0,1,.23.78,1.09,1.09,0,0,1-.56,1,4.85,4.85,0,0,1-1.35.56,6,6,0,0,1-1.6.2A4.94,4.94,0,0,1,119.25,27Z"/>
      <path class="cls-3" d="M138.53,19.21a4,4,0,0,1,.95,2.92v4.11a1.25,1.25,0,0,1-.35.94,1.34,1.34,0,0,1-1,.34,1.27,1.27,0,0,1-.94-.36,1.25,1.25,0,0,1-.35-.92v-.12a2.16,2.16,0,0,1-.91,1.05,2.8,2.8,0,0,1-1.49.38,3.7,3.7,0,0,1-1.65-.36,2.81,2.81,0,0,1-1.16-1,2.57,2.57,0,0,1-.43-1.45,2.27,2.27,0,0,1,.5-1.55,3,3,0,0,1,1.61-.82,14.25,14.25,0,0,1,3-.25h.47v-.33a1.52,1.52,0,0,0-.34-1.11,1.5,1.5,0,0,0-1.12-.35,7.26,7.26,0,0,0-2.25.55,1.79,1.79,0,0,1-.71.2.79.79,0,0,1-.64-.28,1.17,1.17,0,0,1-.23-.74,1,1,0,0,1,.16-.6,1.61,1.61,0,0,1,.53-.44,5.73,5.73,0,0,1,1.55-.54,8.16,8.16,0,0,1,1.81-.2A4,4,0,0,1,138.53,19.21Zm-6.24-4.57a1,1,0,0,1,.34-.77,1.11,1.11,0,0,1,.81-.32,1.27,1.27,0,0,1,1.09.62l1.57,2.09a.86.86,0,0,1,.16.47.68.68,0,0,1-.69.69.75.75,0,0,1-.47-.18l-2.22-1.62A1.24,1.24,0,0,1,132.29,14.64Zm4.08,10.48a2,2,0,0,0,.49-1.39v-.31h-.31a6.09,6.09,0,0,0-2.06.24.85.85,0,0,0-.59.86,1.09,1.09,0,0,0,.33.82,1.17,1.17,0,0,0,.85.32A1.67,1.67,0,0,0,136.37,25.12Z"/>
      <path class="cls-3" d="M155.26,14.84a1.15,1.15,0,0,1,.39.91V26.23a1.25,1.25,0,0,1-.37.93,1.56,1.56,0,0,1-2,0,1.25,1.25,0,0,1-.37-.93v-.15a2.83,2.83,0,0,1-1.14,1.08,3.48,3.48,0,0,1-1.66.39,3.62,3.62,0,0,1-2.05-.59,3.92,3.92,0,0,1-1.4-1.65,5.76,5.76,0,0,1-.5-2.45,5.64,5.64,0,0,1,.5-2.43,3.65,3.65,0,0,1,3.45-2.17,3.61,3.61,0,0,1,1.65.38,2.72,2.72,0,0,1,1.13,1.07v-4a1.1,1.1,0,0,1,.37-.87,1.37,1.37,0,0,1,1-.33A1.51,1.51,0,0,1,155.26,14.84Zm-2.86,10a3,3,0,0,0,.52-1.9,3,3,0,0,0-.52-1.9,1.79,1.79,0,0,0-1.48-.65,1.82,1.82,0,0,0-1.49.65,2.88,2.88,0,0,0-.53,1.86,3.09,3.09,0,0,0,.53,1.92,1.79,1.79,0,0,0,1.49.68A1.77,1.77,0,0,0,152.4,24.8Z"/>
      <path class="cls-3" d="M159.56,27a4,4,0,0,1-1.66-1.62,5.53,5.53,0,0,1,0-4.93,4,4,0,0,1,1.66-1.61,5.37,5.37,0,0,1,2.49-.56,5.32,5.32,0,0,1,2.49.56,4,4,0,0,1,1.66,1.61,5,5,0,0,1,.58,2.47,5,5,0,0,1-.58,2.46A4,4,0,0,1,164.54,27a5.2,5.2,0,0,1-2.49.57A5.26,5.26,0,0,1,159.56,27Zm4.49-4.08a3,3,0,0,0-.52-1.93,1.78,1.78,0,0,0-1.48-.64c-1.33,0-2,.86-2,2.57s.67,2.56,2,2.56S164.05,24.61,164.05,22.9Z"/>
      <path class="cls-3" d="M169.91,27.37a4.31,4.31,0,0,1-1.44-.58,1.08,1.08,0,0,1-.41-.44,1.26,1.26,0,0,1-.15-.62,1.06,1.06,0,0,1,.24-.7.74.74,0,0,1,.58-.28,1.55,1.55,0,0,1,.47.08l.49.19a6.17,6.17,0,0,0,1,.38,4.75,4.75,0,0,0,1.22.13,1.93,1.93,0,0,0,1-.2.6.6,0,0,0,.36-.54.53.53,0,0,0-.16-.41,1.36,1.36,0,0,0-.57-.28,13.17,13.17,0,0,0-1.33-.31,5.11,5.11,0,0,1-2.33-.93,2.18,2.18,0,0,1-.71-1.73,2.4,2.4,0,0,1,.5-1.47,3.39,3.39,0,0,1,1.38-1,4.89,4.89,0,0,1,2-.37,5.64,5.64,0,0,1,1.53.2,4.84,4.84,0,0,1,1.33.56,1.13,1.13,0,0,1,.56,1,1.18,1.18,0,0,1-.23.73.75.75,0,0,1-.59.29,2.12,2.12,0,0,1-1-.33,5,5,0,0,0-.83-.35,2.84,2.84,0,0,0-.88-.12,1.65,1.65,0,0,0-.89.21.65.65,0,0,0-.33.57.62.62,0,0,0,.39.58,5.44,5.44,0,0,0,1.47.4,7.8,7.8,0,0,1,1.91.58,2.29,2.29,0,0,1,1,.84,2.63,2.63,0,0,1-.75,3.35,4.79,4.79,0,0,1-2.85.76A9.12,9.12,0,0,1,169.91,27.37Z"/>
    </g>
    <g>
      <path class="cls-3" d="M64.7,36.8a4,4,0,0,1,.94,2.92v4.11a1.22,1.22,0,0,1-.34.93,1.48,1.48,0,0,1-1.9,0,1.25,1.25,0,0,1-.36-.92V43.7a2.13,2.13,0,0,1-.91,1.06,2.87,2.87,0,0,1-1.49.38A3.56,3.56,0,0,1,59,44.77a2.83,2.83,0,0,1-1.17-1,2.62,2.62,0,0,1-.43-1.45,2.29,2.29,0,0,1,.5-1.55,3,3,0,0,1,1.61-.81,14.21,14.21,0,0,1,3-.26H63v-.33a1.57,1.57,0,0,0-.34-1.11,1.53,1.53,0,0,0-1.12-.34,7.29,7.29,0,0,0-2.26.54,1.57,1.57,0,0,1-.7.2.79.79,0,0,1-.64-.28,1.1,1.1,0,0,1-.24-.74,1,1,0,0,1,.17-.6,1.45,1.45,0,0,1,.52-.43A6.3,6.3,0,0,1,60,36a8.65,8.65,0,0,1,1.81-.2A3.93,3.93,0,0,1,64.7,36.8Zm-2.17,5.91a2,2,0,0,0,.5-1.39V41h-.31a6.51,6.51,0,0,0-2.07.23.87.87,0,0,0-.59.86,1.07,1.07,0,0,0,.34.83,1.17,1.17,0,0,0,.84.32A1.64,1.64,0,0,0,62.53,42.71Z"/>
      <path class="cls-3" d="M69.41,44.57A3.83,3.83,0,0,1,67.82,43a5.51,5.51,0,0,1,0-4.9,4.14,4.14,0,0,1,1.67-1.65A5.18,5.18,0,0,1,72,35.84a5.72,5.72,0,0,1,1.47.2,4.92,4.92,0,0,1,1.32.57,1.12,1.12,0,0,1,.56,1,1.26,1.26,0,0,1-.22.78.68.68,0,0,1-.58.3,1.33,1.33,0,0,1-.45-.08l-.55-.25a6.23,6.23,0,0,0-.68-.31,2.08,2.08,0,0,0-.69-.11,1.92,1.92,0,0,0-1.55.65,3.56,3.56,0,0,0,0,3.77,1.89,1.89,0,0,0,1.55.66,2.32,2.32,0,0,0,.68-.1,7.45,7.45,0,0,0,.71-.32l.54-.25a1.27,1.27,0,0,1,.44-.08.67.67,0,0,1,.57.31,1.31,1.31,0,0,1,.23.78,1.09,1.09,0,0,1-.56,1,4.86,4.86,0,0,1-1.35.57,6.43,6.43,0,0,1-1.6.2A5,5,0,0,1,69.41,44.57Z"/>
      <path class="cls-3" d="M83.62,36.8a4,4,0,0,1,.94,2.92v4.11a1.22,1.22,0,0,1-.34.93,1.34,1.34,0,0,1-1,.34,1.3,1.3,0,0,1-.94-.35,1.28,1.28,0,0,1-.35-.92V43.7a2.13,2.13,0,0,1-.91,1.06,2.87,2.87,0,0,1-1.49.38,3.58,3.58,0,0,1-1.65-.37,2.81,2.81,0,0,1-1.16-1,2.55,2.55,0,0,1-.43-1.45,2.29,2.29,0,0,1,.5-1.55,3,3,0,0,1,1.61-.81,14.14,14.14,0,0,1,3-.26h.47v-.33a1.57,1.57,0,0,0-.33-1.11,1.53,1.53,0,0,0-1.12-.34,7.23,7.23,0,0,0-2.26.54,1.6,1.6,0,0,1-.71.2.77.77,0,0,1-.63-.28,1.1,1.1,0,0,1-.24-.74,1,1,0,0,1,.16-.6,1.6,1.6,0,0,1,.53-.43A6,6,0,0,1,78.9,36a8.65,8.65,0,0,1,1.81-.2A3.94,3.94,0,0,1,83.62,36.8Zm-2.17,5.91a2,2,0,0,0,.49-1.39V41h-.31a6.44,6.44,0,0,0-2.06.23.86.86,0,0,0-.59.86,1.1,1.1,0,0,0,.33.83,1.21,1.21,0,0,0,.85.32A1.67,1.67,0,0,0,81.45,42.71Z"/>
      <path class="cls-3" d="M95.27,32.42a1.17,1.17,0,0,1,.39.91V43.81a1.24,1.24,0,0,1-.38.94,1.39,1.39,0,0,1-1,.35,1.41,1.41,0,0,1-1-.35,1.24,1.24,0,0,1-.37-.94v-.15a2.85,2.85,0,0,1-1.14,1.09,3.48,3.48,0,0,1-1.66.39,3.67,3.67,0,0,1-2-.59,3.94,3.94,0,0,1-1.4-1.66,5.73,5.73,0,0,1-.5-2.45,5.56,5.56,0,0,1,.5-2.42,3.68,3.68,0,0,1,3.45-2.18,3.57,3.57,0,0,1,1.64.38,2.77,2.77,0,0,1,1.14,1.08v-4a1.13,1.13,0,0,1,.36-.88,1.45,1.45,0,0,1,1-.32A1.51,1.51,0,0,1,95.27,32.42Zm-2.86,10a3,3,0,0,0,.52-1.9,3,3,0,0,0-.52-1.89,1.78,1.78,0,0,0-1.48-.66,1.81,1.81,0,0,0-1.49.65,2.83,2.83,0,0,0-.53,1.86,3,3,0,0,0,.53,1.92,1.75,1.75,0,0,0,1.49.69A1.79,1.79,0,0,0,92.41,42.38Z"/>
      <path class="cls-3" d="M105.52,42.63a1.11,1.11,0,0,1,.23.74,1,1,0,0,1-.18.58,1.48,1.48,0,0,1-.51.44,6.36,6.36,0,0,1-1.44.54,6,6,0,0,1-1.51.21,5.34,5.34,0,0,1-2.53-.57A3.93,3.93,0,0,1,97.91,43a5,5,0,0,1-.58-2.46,5.11,5.11,0,0,1,.56-2.42,4.23,4.23,0,0,1,1.57-1.65,4.41,4.41,0,0,1,2.27-.59,4.15,4.15,0,0,1,2.14.54,3.71,3.71,0,0,1,1.43,1.53,5,5,0,0,1,.51,2.32.93.93,0,0,1-.19.61.69.69,0,0,1-.54.2H100a2.41,2.41,0,0,0,.65,1.56,2.17,2.17,0,0,0,1.51.48,3.12,3.12,0,0,0,.95-.13,8.22,8.22,0,0,0,.92-.34c.17-.07.34-.14.5-.19a1.1,1.1,0,0,1,.41-.08A.69.69,0,0,1,105.52,42.63Zm-5-4.4a2.37,2.37,0,0,0-.56,1.45h3.51a2.4,2.4,0,0,0-.48-1.45,1.52,1.52,0,0,0-1.21-.5A1.66,1.66,0,0,0,100.55,38.23ZM101.79,35a.66.66,0,0,1-.49-.2.63.63,0,0,1-.2-.48.83.83,0,0,1,.16-.47l1.56-2.09a1.35,1.35,0,0,1,1.1-.62,1.15,1.15,0,0,1,.8.33,1,1,0,0,1,.34.76,1.21,1.21,0,0,1-.58,1l-2.22,1.62A.78.78,0,0,1,101.79,35Z"/>
      <path class="cls-3" d="M120.7,36.72a4.27,4.27,0,0,1,.79,2.89v4.2a1.17,1.17,0,0,1-.39,1,1.43,1.43,0,0,1-1,.33,1.49,1.49,0,0,1-1-.33,1.15,1.15,0,0,1-.4-1V39.57a1.94,1.94,0,0,0-.3-1.23,1.16,1.16,0,0,0-.92-.35,1.52,1.52,0,0,0-1.22.53,2.19,2.19,0,0,0-.45,1.47v3.82a1.2,1.2,0,0,1-.38,1,1.48,1.48,0,0,1-1,.33,1.51,1.51,0,0,1-1-.33,1.15,1.15,0,0,1-.4-1V39.57a1.94,1.94,0,0,0-.3-1.23,1.16,1.16,0,0,0-.92-.35,1.52,1.52,0,0,0-1.22.53,2.19,2.19,0,0,0-.45,1.47v3.82a1.17,1.17,0,0,1-.39,1,1.47,1.47,0,0,1-1,.33,1.51,1.51,0,0,1-1-.33,1.18,1.18,0,0,1-.4-1V37.13a1.1,1.1,0,0,1,.41-.92,1.52,1.52,0,0,1,1-.33,1.28,1.28,0,0,1,.91.32,1.11,1.11,0,0,1,.37.88v.18a2.92,2.92,0,0,1,1.13-1,3.33,3.33,0,0,1,1.59-.37,3.15,3.15,0,0,1,1.63.39,2.51,2.51,0,0,1,1,1.27,3.14,3.14,0,0,1,1.19-1.21,3.44,3.44,0,0,1,1.76-.45A2.84,2.84,0,0,1,120.7,36.72Z"/>
      <path class="cls-3" d="M123.8,34.05a1.28,1.28,0,0,1-.42-1,1.26,1.26,0,0,1,.42-1,1.69,1.69,0,0,1,1.14-.36,1.66,1.66,0,0,1,1.14.37,1.39,1.39,0,0,1,0,2,2,2,0,0,1-2.29,0ZM124,44.77a1.17,1.17,0,0,1-.39-1V37.17a1.15,1.15,0,0,1,.4-1,1.62,1.62,0,0,1,2,0,1.17,1.17,0,0,1,.39,1v6.64a1.17,1.17,0,0,1-.39,1,1.64,1.64,0,0,1-2,0Z"/>
      <path class="cls-3" d="M137.08,36.23a1.24,1.24,0,0,1,.38.94V47.1a1.15,1.15,0,0,1-.39.91,1.51,1.51,0,0,1-1,.35,1.41,1.41,0,0,1-1-.33,1.12,1.12,0,0,1-.36-.87V43.7a2.85,2.85,0,0,1-1.14,1.06,3.57,3.57,0,0,1-1.64.38A3.68,3.68,0,0,1,128.48,43a5.56,5.56,0,0,1-.5-2.42,5.73,5.73,0,0,1,.5-2.45,3.94,3.94,0,0,1,1.4-1.66,3.67,3.67,0,0,1,2.05-.59,3.48,3.48,0,0,1,1.66.39,2.79,2.79,0,0,1,1.14,1.09v-.15a1.24,1.24,0,0,1,.37-.94,1.41,1.41,0,0,1,1-.35A1.39,1.39,0,0,1,137.08,36.23Zm-2.87,6.16a3,3,0,0,0,.52-1.89,3,3,0,0,0-.52-1.9,1.79,1.79,0,0,0-1.48-.67,1.75,1.75,0,0,0-1.49.69,3,3,0,0,0-.53,1.92,2.83,2.83,0,0,0,.53,1.86,1.81,1.81,0,0,0,1.49.65A1.78,1.78,0,0,0,134.21,42.39Z"/>
      <path class="cls-3" d="M147.8,36.22a1.23,1.23,0,0,1,.37,1v6.68a1.18,1.18,0,0,1-.39.91,1.47,1.47,0,0,1-1,.34,1.29,1.29,0,0,1-.93-.33,1.13,1.13,0,0,1-.34-.87v-.18a2.84,2.84,0,0,1-1.1,1.05,3.16,3.16,0,0,1-1.54.37,3.2,3.2,0,0,1-2.52-.94,4.18,4.18,0,0,1-.83-2.83v-4.2a1.23,1.23,0,0,1,.38-1,1.66,1.66,0,0,1,2,0,1.26,1.26,0,0,1,.36,1v4.26a1.73,1.73,0,0,0,.34,1.18,1.29,1.29,0,0,0,1,.38,1.65,1.65,0,0,0,1.3-.55,2,2,0,0,0,.5-1.43V37.17a1.26,1.26,0,0,1,.37-1,1.38,1.38,0,0,1,1-.34A1.44,1.44,0,0,1,147.8,36.22Z"/>
      <path class="cls-3" d="M158,42.63a1.17,1.17,0,0,1,.23.74,1,1,0,0,1-.19.58,1.48,1.48,0,0,1-.51.44,6.46,6.46,0,0,1-1.43.54,6.14,6.14,0,0,1-1.51.21,5.38,5.38,0,0,1-2.54-.57A3.85,3.85,0,0,1,150.43,43a5,5,0,0,1-.59-2.46,5,5,0,0,1,.57-2.42A4.2,4.2,0,0,1,152,36.43a4.45,4.45,0,0,1,2.28-.59,4.11,4.11,0,0,1,2.13.54,3.65,3.65,0,0,1,1.43,1.53,5,5,0,0,1,.51,2.32.88.88,0,0,1-.19.61.69.69,0,0,1-.54.2H152.5a2.41,2.41,0,0,0,.65,1.56,2.19,2.19,0,0,0,1.51.48,3.07,3.07,0,0,0,1-.13,9.12,9.12,0,0,0,.93-.34c.17-.07.33-.14.49-.19a1.18,1.18,0,0,1,.42-.08A.7.7,0,0,1,158,42.63Zm-5-4.4a2.43,2.43,0,0,0-.56,1.45H156a2.4,2.4,0,0,0-.48-1.45,1.52,1.52,0,0,0-1.21-.5A1.68,1.68,0,0,0,153.06,38.23Z"/>
    </g>
    <g>
      <g class="cls-4">
        <rect class="cls-3" x="-8.04" y="-0.27" width="59.25" height="65.29"/>
        <rect class="cls-5" x="22.5" y="-10.69" width="28.82" height="72.27"/>
        <ellipse class="cls-6" cx="7.77" cy="52.09" rx="13.04" ry="41.57" transform="translate(-38.83 27.54) rotate(-53.74)"/>
        <ellipse class="cls-7" cx="1.11" cy="55.82" rx="12.47" ry="41.57" transform="translate(-50.76 35.16) rotate(-67.14)"/>
      </g>
      <g>
        <path class="cls-1" d="M15.48,41.57A115,115,0,0,1,32.53,56.71h2V31.1H0v.76A121.3,121.3,0,0,1,15.48,41.57Z"/>
        <path class="cls-6" d="M16.55,42.13a112.54,112.54,0,0,0-14.5-9.36l-.42,9.86c1.84.7,4.12,1.34,6,2.15A107.5,107.5,0,0,1,28.76,56.71h3.77A108.64,108.64,0,0,0,16.55,42.13Z"/>
        <path class="cls-7" d="M0,42V56.71H28.5A114.47,114.47,0,0,0,6,44.33C4,43.49,2,42.7,0,42Z"/>
      </g>
      <g>
        <path class="cls-2" d="M18.41,5.07a4.64,4.64,0,0,1,3.94-2.34h.13a4.64,4.64,0,0,1,4.09,2.37.59.59,0,0,1,0,.5c-.05.1-.3.14-.45.12a24.4,24.4,0,0,0-3.81-.26,24.61,24.61,0,0,0-3.52.25c-.15,0-.41,0-.47-.13A.57.57,0,0,1,18.41,5.07ZM9.53,18a17.44,17.44,0,0,1,1-2.65,11.14,11.14,0,0,1,8.32-6.13,15.81,15.81,0,0,1,3.54-.34h.21A18.07,18.07,0,0,1,28,9.7a11,11,0,0,1,6.66,6.1,14.41,14.41,0,0,1,.75,1.92,1,1,0,0,1-1.11,1.45c-.5,0-.73-.39-.9-.8s-.39-1.07-.63-1.59A9.1,9.1,0,0,0,26,11.41,18.21,18.21,0,0,0,22.35,11a16.87,16.87,0,0,0-4.27.57,8.69,8.69,0,0,0-5.54,4.7c-.29.55-.53,1.13-.8,1.69a6.67,6.67,0,0,1-.35.71.89.89,0,0,1-1.19.39C9.68,18.91,9.38,18.54,9.53,18Zm26.77,32a1,1,0,0,1-1.23-.83c-.11-.6-.15-1.22-.2-1.83-.27-3.1-.49-6.2-.82-9.29a29.12,29.12,0,0,0-.82-4.55,10.51,10.51,0,0,0-6.06-7.07,11.89,11.89,0,0,0-4.82-1.11,11.34,11.34,0,0,0-6.52,2,10.47,10.47,0,0,0-3.66,4.79,17.71,17.71,0,0,0-1.29,5.58v0L10.7,40l-.57,7.11h0c0,.46-.07.92-.12,1.38,0,.22,0,.45-.08.68a.94.94,0,0,1-1.16.91.89.89,0,0,1-.93-1h0c0-.31,0-.62,0-.94s0-.53.08-.8c0-.09,0-.19,0-.28.35-3.42.69-6.85,1.06-10.27A22.84,22.84,0,0,1,9.64,33c1.1-3.85,3.21-6.94,7-8.57a14,14,0,0,1,5.16-1h.51a15.16,15.16,0,0,1,5.5.86,11.5,11.5,0,0,1,6.38,5.8,19.1,19.1,0,0,1,2.07,7.39c.26,3.21.49,6.42.73,9.63,0,.63.11,1.26.12,1.9A1,1,0,0,1,36.3,50.06Z"/>
        <g class="cls-8">
          <rect class="cls-2" x="-8.04" y="-0.27" width="59.25" height="65.29"/>
          <rect class="cls-2" x="22.5" y="-10.69" width="28.82" height="72.27"/>
          <ellipse class="cls-2" cx="7.77" cy="52.09" rx="13.04" ry="41.57" transform="translate(-38.83 27.54) rotate(-53.74)"/>
          <ellipse class="cls-2" cx="1.11" cy="55.82" rx="12.47" ry="41.57" transform="translate(-50.76 35.16) rotate(-67.14)"/>
        </g>
      </g>
    </g>
  </g>
</svg>
